<svg width="30" height="31" viewBox="0 0 30 31" fill="none" xmlns="http://www.w3.org/2000/svg">
<path d="M14.9998 23.9355C15.2774 23.9355 15.5436 23.8253 15.7398 23.629C15.9361 23.4328 16.0464 23.1666 16.0464 22.889V14.5169C16.0464 14.2394 15.9361 13.9732 15.7398 13.7769C15.5436 13.5807 15.2774 13.4704 14.9998 13.4704C14.7223 13.4704 14.4561 13.5807 14.2598 13.7769C14.0636 13.9732 13.9533 14.2394 13.9533 14.5169V22.889C13.9533 23.4667 14.4222 23.9355 14.9998 23.9355ZM14.9998 8.93555C15.3699 8.93555 15.7248 9.08256 15.9865 9.34424C16.2482 9.60591 16.3952 9.96083 16.3952 10.3309C16.3952 10.701 16.2482 11.0559 15.9865 11.3176C15.7248 11.5792 15.3699 11.7262 14.9998 11.7262C14.6298 11.7262 14.2749 11.5792 14.0132 11.3176C13.7515 11.0559 13.6045 10.701 13.6045 10.3309C13.6045 9.96083 13.7515 9.60591 14.0132 9.34424C14.2749 9.08256 14.6298 8.93555 14.9998 8.93555Z" fill="#494949"/>
<path fill-rule="evenodd" clip-rule="evenodd" d="M0 15.9121C0 7.62792 6.71581 0.912109 15 0.912109C23.2842 0.912109 30 7.62792 30 15.9121C30 24.1963 23.2842 30.9121 15 30.9121C6.71581 30.9121 0 24.1963 0 15.9121ZM15 3.00513C11.5769 3.00513 8.29392 4.36497 5.87339 6.7855C3.45286 9.20603 2.09302 12.489 2.09302 15.9121C2.09302 19.3353 3.45286 22.6182 5.87339 25.0387C8.29392 27.4592 11.5769 28.8191 15 28.8191C18.4231 28.8191 21.7061 27.4592 24.1266 25.0387C26.5471 22.6182 27.907 19.3353 27.907 15.9121C27.907 12.489 26.5471 9.20603 24.1266 6.7855C21.7061 4.36497 18.4231 3.00513 15 3.00513Z" fill="#494949"/>
</svg>
